<svg width="16" height="16" viewBox="0 0 16 16" fill="none" xmlns="http://www.w3.org/2000/svg">
<g clip-path="url(#clip0_170_90)">
<path fill-rule="evenodd" clip-rule="evenodd" d="M0 0H1.14286V1.14286H2.28571V2.28571H1.14286V3.42857H2.28571V4.57143H3.42857V5.71429H1.14286V10.2857H2.28571V11.4286H1.14286V12.5714H2.28571V11.4286H3.42857V12.5714H4.57143V11.4286H3.42857V10.2857H4.57143V9.14286H6.85714V8H8V6.85714H9.14286V8H10.2857V9.14286H9.14286V10.2857H10.2857V11.4286H8V12.5714H9.14286V14.8571H10.2857V13.7143H13.7143V14.8571H16V16H0V0ZM2.28571 0H3.42857V1.14286H2.28571V0ZM4.57143 0H5.71429V1.14286H4.57143V0ZM6.85714 0H8V1.14286H6.85714V0ZM9.14286 0H10.2857V1.14286H11.4286V0H12.5714V1.14286H13.7143V0H14.8571V1.14286H16V2.28571H10.2857V3.42857H8V2.28571H9.14286V0ZM3.42857 1.14286H4.57143V2.28571H3.42857V1.14286ZM5.71429 1.14286H6.85714V2.28571H5.71429V1.14286ZM4.57143 2.28571H5.71429V3.42857H6.85714V4.57143H3.42857V3.42857H4.57143V2.28571ZM10.2857 3.42857H11.4286V4.57143H13.7143V5.71429H11.4286V6.85714H12.5714V8H13.7143V9.14286H14.8571V10.2857H16V11.4286H14.8571V12.5714H13.7143V10.2857H10.2857V9.14286H11.4286V8H10.2857V6.85714H9.14286V4.57143H10.2857V3.42857ZM14.8571 3.42857H16V4.57143H14.8571V3.42857ZM6.85714 4.57143H8V6.85714H6.85714V4.57143ZM3.42857 5.71429H4.57143V6.85714H3.42857V5.71429ZM14.8571 5.71429H16V6.85714H14.8571V5.71429ZM4.57143 6.85714H5.71429V8H4.57143V6.85714ZM13.7143 6.85714H14.8571V8H13.7143V6.85714ZM14.8571 8H16V9.14286H14.8571V8ZM2.28571 9.14286H3.42857V10.2857H2.28571V9.14286ZM5.71429 10.2857V11.4286H6.85714V10.2857H5.71429ZM5.71429 12.5714V14.8571H6.85714V12.5714H5.71429ZM14.8571 12.5714H16V13.7143H14.8571V12.5714ZM1.14286 13.7143V14.8571H3.42857V13.7143H1.14286Z" fill="#120F18"/>
</g>
<defs>
<clipPath id="clip0_170_90">
<rect width="16" height="16" fill="white"/>
</clipPath>
</defs>
</svg>
