<svg width="27" height="331" viewBox="0 0 27 331"  preserveAspectRatio="none" fill="none" xmlns="http://www.w3.org/2000/svg">
<path d="M4.83398 177.718V178.115H14.7881L14.7881 322.894H12.1611V323.556H14.7881V331H1.94629L1.94629 312.066L0 307.565L4.07422 298.898L4.07422 248.647L4.86523 247.39L4.07422 246.132L4.11914 44.666L14.7881 54.5664L14.7881 177.718H4.83398ZM4.11914 44.0254V42.875L5.7207 40.875L1.88574 37.3096L1.88574 6L10 0L14.7881 0L14.7881 53.9268L4.11914 44.0254ZM4.66113 14.2168V14.6611H11.0674L11.0674 14.2168H4.66113ZM4.93945 88.8584V91.7705H7.86426V88.8584H4.93945ZM4.93945 93.7578V94.4199H7.86426V93.7578H4.93945ZM4.93945 96.2725V96.9346H7.86426V96.2725H4.93945ZM4.93945 100.773V101.436H7.86426V100.773H4.93945ZM4.93945 102.098V102.76H7.86426V102.098H4.93945ZM4.93945 103.422V104.084H7.86426V103.422H4.93945ZM4.93945 109.644V110.306H7.86426V109.644H4.93945ZM4.93945 112.953V113.615H7.86426V112.953H4.93945ZM4.93945 115.204V115.866H7.86426V115.204H4.93945ZM4.95117 245.203V249.994L6.64648 247.586L4.95117 245.203ZM5.03027 126.18V127.9L11.8105 134.438V132.717L5.03027 126.18ZM5.03027 133.594V135.314L13.4063 143.391V141.669L5.03027 133.594ZM9.23633 278.992L5.11523 275.019V276.74L9.23633 280.713V278.992ZM5.46387 130.327V132.049L13.8408 140.124V138.403L5.46387 130.327ZM6.67969 247.587L9.9707 249.994V245.179L6.67969 247.587ZM10.0342 273.06V273.645L10.2188 273.47V272.886L10.0342 273.06ZM15.1865 54.2959L15.1865 0L27 0L27 65.2588L15.1865 54.2959ZM15.1865 177.718L15.1865 54.9365L27 65.8994L27 177.718H15.1865ZM15.1865 331V323.556H19.0752V322.894H15.1865L15.1865 178.115H27L27 331H15.1865ZM16.1494 319.584V320.246H19.4736V319.584H16.1494ZM17.209 196.378L17.0059 196.579V198.855L19.5117 196.378H17.209ZM20.5273 196.379L17.0059 199.86V202.137L22.8301 196.379H20.5273ZM23.8457 196.378L17.0059 203.141V205.417L24.7949 197.717V196.378H23.8457ZM17.0059 206.422V208.698L24.7959 200.998L24.7959 198.722L17.0059 206.422ZM17.0059 209.702V211.979L24.7959 204.279V202.002L17.0059 209.702ZM17.0059 212.983V215.26L24.7959 207.56V205.283L17.0059 212.983ZM17.0059 216.264V218.541L24.7959 210.841V208.564L17.0059 216.264ZM17.0059 219.546V221.822L24.7959 214.122V211.846L17.0059 219.546ZM17.0059 222.826V225.103L24.7959 217.402V215.126L17.0059 222.826ZM17.0059 226.106V228.384L24.7959 220.684V218.407L17.0059 226.106ZM17.0059 229.388V231.664L24.7959 223.965V221.688L17.0059 229.388ZM17.0059 232.669V234.945L24.7959 227.245V224.969L17.0059 232.669ZM17.0059 236.017V238.293L24.7959 230.593V228.316L17.0059 236.017ZM17.0059 239.364V241.641L24.7959 233.94V231.664L17.0059 239.364ZM17.0059 242.712V243.917H18.0889L24.7959 237.288V235.012L17.0059 242.712ZM17.2129 316.671V317.995H17.8779V316.671H17.2129ZM19.1738 243.918H21.4766L24.7959 240.638V238.36L19.1738 243.918ZM20.498 2.66504V3.32715L23.4229 3.32715V2.66504L20.498 2.66504ZM20.498 5.18066V5.8418H23.4229V5.18066H20.498ZM20.498 9.68262V10.3447H23.4229V9.68262H20.498ZM20.498 11.0059V11.667H23.4229V11.0059H20.498ZM20.498 12.3291V12.9912H23.4229V12.3291H20.498ZM20.498 14.0508V16.9629H23.4229V14.0508H20.498ZM20.498 18.5518V19.2139H23.4229V18.5518H20.498ZM20.498 21.8613V22.5234H23.4229V21.8613H20.498ZM20.498 24.1113V24.7734H23.4229V24.1113H20.498ZM20.498 26.3633V29.2754H23.4229V26.3633H20.498ZM21.8701 180.384V183.296H24.7959V180.384H21.8701ZM22.5605 243.918H24.7959V241.708L22.5605 243.918Z" fill="#DEFF5D"/>
</svg>
