<svg width="10" height="636" viewBox="0 0 10 636" fill="none" xmlns="http://www.w3.org/2000/svg">
<path d="M0 636L0 595.284H9.99922L9.99922 636H0Z" fill="#DEFF5D"/>
<path d="M0.000854492 463.883L0.000854492 423.167H10.0001L10.0001 463.883H0.000854492Z" fill="#DEFF5D"/>
<path d="M0.000854492 573.064L0.000854492 563.811H10.0001V573.064H0.000854492Z" fill="#DEFF5D"/>
<path d="M0.000854492 541.61L0.000854492 532.357H10.0001V541.61H0.000854492Z" fill="#DEFF5D"/>
<path d="M0.000854492 495.344L0.000854492 486.09H10.0001V495.344H0.000854492Z" fill="#DEFF5D"/>
<path d="M0.000854492 408.354L0.000854492 399.1H10.0001V408.354H0.000854492Z" fill="#DEFF5D"/>
<path d="M0.000854492 389.848L0.000854492 380.595H10.0001V389.848H0.000854492Z" fill="#DEFF5D"/>
<path d="M0.000854492 371.357L0.000854492 362.103H10.0001V371.357H0.000854492Z" fill="#DEFF5D"/>
<path d="M0.000732422 308.414L0.000732422 299.16H9.99996V308.414H0.000732422Z" fill="#DEFF5D"/>
<path d="M0.000854492 273.254L0.000854492 264H10.0001V273.254H0.000854492Z" fill="#DEFF5D"/>
<path d="M0 25.8882L0 9.91821e-05H9.99952L9.99952 25.8882H0Z" fill="#DEFF5D"/>
<path d="M0 240.055L0 234.171H9.99952V240.055H0Z" fill="#DEFF5D"/>
<path d="M0 220.051L0 214.168H9.99952V220.051H0Z" fill="#DEFF5D"/>
<path d="M0 190.63L0 184.746H9.99952V190.63H0Z" fill="#DEFF5D"/>
<path d="M0 135.328L0 129.444H9.99952V135.328H0Z" fill="#DEFF5D"/>
<path d="M0 123.562L0 117.678H9.99952V123.562H0Z" fill="#DEFF5D"/>
<path d="M0 111.792L0 105.908H9.99952V111.792H0Z" fill="#DEFF5D"/>
<path d="M0 71.7847L0 65.901H9.99952V71.7847H0Z" fill="#DEFF5D"/>
<path d="M0 49.4287L0 43.5451H9.99952V49.4287H0Z" fill="#DEFF5D"/>
</svg>
