<svg width="18" height="18" viewBox="0 0 18 18" fill="none" xmlns="http://www.w3.org/2000/svg">
<path d="M0 0H0.2665H5.33V4.797V5.12124V5.33H0V0Z" fill="#14241B"/>
<path d="M0 6H0.2665H5.33V10.797V11.1212V11.33H0V6Z" fill="#14241B"/>
<path d="M0 12H0.2665H5.33V16.797V17.1212V17.33H0V12Z" fill="#14241B"/>
<path d="M6 0H6.2665H11.33V4.797V5.12124V5.33H6V0Z" fill="#14241B"/>
<path d="M10.8301 6.5V10.8301H6.5V6.5H10.8301Z" stroke="#14241B"/>
<path d="M6 12H6.2665H11.33V16.797V17.1212V17.33H6V12Z" fill="#14241B"/>
<path d="M12 0H12.2665H17.33V4.797V5.12124V5.33H12V0Z" fill="#14241B"/>
<path d="M12 6H12.2665H17.33V10.797V11.1212V11.33H12V6Z" fill="#14241B"/>
<path d="M12 12H12.2665H17.33V16.797V17.1212V17.33H12V12Z" fill="#14241B"/>
</svg>
