<svg width="169" height="21" viewBox="0 0 169 21" fill="none" xmlns="http://www.w3.org/2000/svg">
<rect width="2.6" height="2.6" transform="matrix(1 0 0 -1 0 20.2803)" fill="#DEFF5D" fill-opacity="0.8"/>
<rect width="2.6" height="2.6" transform="matrix(1 0 0 -1 10.4 20.2803)" fill="#DEFF5D" fill-opacity="0.8"/>
<rect width="2.6" height="2.6" transform="matrix(1 0 0 -1 20.8 20.2803)" fill="#DEFF5D" fill-opacity="0.8"/>
<rect width="2.6" height="2.6" transform="matrix(1 0 0 -1 31.2 20.2803)" fill="#DEFF5D" fill-opacity="0.8"/>
<rect width="2.6" height="2.6" transform="matrix(1 0 0 -1 41.6 20.2803)" fill="#DEFF5D" fill-opacity="0.8"/>
<rect width="2.6" height="2.6" transform="matrix(1 0 0 -1 52 20.2803)" fill="#DEFF5D" fill-opacity="0.8"/>
<rect width="2.6" height="2.6" transform="matrix(1 0 0 -1 62.4 20.2803)" fill="#DEFF5D" fill-opacity="0.8"/>
<rect width="2.6" height="2.6" transform="matrix(1 0 0 -1 72.8 20.2803)" fill="#DEFF5D" fill-opacity="0.8"/>
<rect width="2.6" height="2.6" transform="matrix(1 0 0 -1 83.2 20.2803)" fill="#DEFF5D" fill-opacity="0.8"/>
<rect width="2.6" height="2.6" transform="matrix(1 0 0 -1 93.6 20.2803)" fill="#DEFF5D" fill-opacity="0.8"/>
<rect width="2.6" height="2.6" transform="matrix(1 0 0 -1 104 20.2803)" fill="#DEFF5D" fill-opacity="0.8"/>
<rect width="2.6" height="2.6" transform="matrix(1 0 0 -1 114.4 20.2803)" fill="#DEFF5D" fill-opacity="0.8"/>
<rect width="2.6" height="2.6" transform="matrix(1 0 0 -1 124.8 20.2803)" fill="#DEFF5D" fill-opacity="0.8"/>
<rect width="2.6" height="2.6" transform="matrix(1 0 0 -1 135.2 20.2803)" fill="#DEFF5D" fill-opacity="0.8"/>
<rect width="2.6" height="2.6" transform="matrix(1 0 0 -1 145.6 20.2803)" fill="#DEFF5D" fill-opacity="0.8"/>
<rect width="2.6" height="2.6" transform="matrix(1 0 0 -1 156 20.2803)" fill="#DEFF5D" fill-opacity="0.8"/>
<rect width="2.6" height="2.6" transform="matrix(1 0 0 -1 166.4 20.2803)" fill="#DEFF5D" fill-opacity="0.8"/>
<rect width="2.6" height="2.6" transform="matrix(1 0 0 -1 0 11.4404)" fill="#DEFF5D" fill-opacity="0.8"/>
<rect width="2.6" height="2.6" transform="matrix(1 0 0 -1 10.4 11.4404)" fill="#DEFF5D" fill-opacity="0.8"/>
<rect width="2.6" height="2.6" transform="matrix(1 0 0 -1 20.8 11.4404)" fill="#DEFF5D" fill-opacity="0.8"/>
<rect width="2.6" height="2.6" transform="matrix(1 0 0 -1 31.2 11.4404)" fill="#DEFF5D" fill-opacity="0.8"/>
<rect width="2.6" height="2.6" transform="matrix(1 0 0 -1 41.6 11.4404)" fill="#DEFF5D" fill-opacity="0.8"/>
<rect width="2.6" height="2.6" transform="matrix(1 0 0 -1 52 11.4404)" fill="#DEFF5D" fill-opacity="0.8"/>
<rect width="2.6" height="2.6" transform="matrix(1 0 0 -1 62.4 11.4404)" fill="#DEFF5D" fill-opacity="0.8"/>
<rect width="2.6" height="2.6" transform="matrix(1 0 0 -1 72.8 11.4404)" fill="#DEFF5D" fill-opacity="0.8"/>
<rect width="2.6" height="2.6" transform="matrix(1 0 0 -1 83.2 11.4404)" fill="#DEFF5D" fill-opacity="0.8"/>
<rect width="2.6" height="2.6" transform="matrix(1 0 0 -1 93.6 11.4404)" fill="#DEFF5D" fill-opacity="0.8"/>
<rect width="2.6" height="2.6" transform="matrix(1 0 0 -1 104 11.4404)" fill="#DEFF5D" fill-opacity="0.8"/>
<rect width="2.6" height="2.6" transform="matrix(1 0 0 -1 114.4 11.4404)" fill="#DEFF5D" fill-opacity="0.8"/>
<rect width="2.6" height="2.6" transform="matrix(1 0 0 -1 124.8 11.4404)" fill="#DEFF5D" fill-opacity="0.8"/>
<rect width="2.6" height="2.6" transform="matrix(1 0 0 -1 135.2 11.4404)" fill="#DEFF5D" fill-opacity="0.8"/>
<rect width="2.6" height="2.6" transform="matrix(1 0 0 -1 145.6 11.4404)" fill="#DEFF5D" fill-opacity="0.8"/>
<rect width="2.6" height="2.6" transform="matrix(1 0 0 -1 156 11.4404)" fill="#DEFF5D" fill-opacity="0.8"/>
<rect width="2.6" height="2.6" transform="matrix(1 0 0 -1 166.4 11.4404)" fill="#DEFF5D" fill-opacity="0.8"/>
<rect width="2.6" height="2.6" transform="matrix(1 0 0 -1 0 2.6001)" fill="#DEFF5D" fill-opacity="0.8"/>
<rect width="2.6" height="2.6" transform="matrix(1 0 0 -1 10.4 2.6001)" fill="#DEFF5D" fill-opacity="0.8"/>
<rect width="2.6" height="2.6" transform="matrix(1 0 0 -1 20.8 2.6001)" fill="#DEFF5D" fill-opacity="0.8"/>
<rect width="2.6" height="2.6" transform="matrix(1 0 0 -1 31.2 2.6001)" fill="#DEFF5D" fill-opacity="0.8"/>
<rect width="2.6" height="2.6" transform="matrix(1 0 0 -1 41.6 2.6001)" fill="#DEFF5D" fill-opacity="0.8"/>
<rect width="2.6" height="2.6" transform="matrix(1 0 0 -1 52 2.6001)" fill="#DEFF5D" fill-opacity="0.8"/>
<rect width="2.6" height="2.6" transform="matrix(1 0 0 -1 62.4 2.6001)" fill="#DEFF5D" fill-opacity="0.8"/>
<rect width="2.6" height="2.6" transform="matrix(1 0 0 -1 72.8 2.6001)" fill="#DEFF5D" fill-opacity="0.8"/>
<rect width="2.6" height="2.6" transform="matrix(1 0 0 -1 83.2 2.6001)" fill="#DEFF5D" fill-opacity="0.8"/>
<rect width="2.6" height="2.6" transform="matrix(1 0 0 -1 93.6 2.6001)" fill="#DEFF5D" fill-opacity="0.8"/>
<rect width="2.6" height="2.6" transform="matrix(1 0 0 -1 104 2.6001)" fill="#DEFF5D" fill-opacity="0.8"/>
<rect width="2.6" height="2.6" transform="matrix(1 0 0 -1 114.4 2.6001)" fill="#DEFF5D" fill-opacity="0.8"/>
<rect width="2.6" height="2.6" transform="matrix(1 0 0 -1 124.8 2.6001)" fill="#DEFF5D" fill-opacity="0.8"/>
<rect width="2.6" height="2.6" transform="matrix(1 0 0 -1 135.2 2.6001)" fill="#DEFF5D" fill-opacity="0.8"/>
<rect width="2.6" height="2.6" transform="matrix(1 0 0 -1 145.6 2.6001)" fill="#DEFF5D" fill-opacity="0.8"/>
<rect width="2.6" height="2.6" transform="matrix(1 0 0 -1 156 2.6001)" fill="#DEFF5D" fill-opacity="0.8"/>
<rect width="2.6" height="2.6" transform="matrix(1 0 0 -1 166.4 2.6001)" fill="#DEFF5D" fill-opacity="0.8"/>
</svg>
